<svg width="462" height="463" viewBox="0 0 462 463" fill="none" xmlns="http://www.w3.org/2000/svg">
<path d="M436.802 233.445L461.941 235.194L460.74 252.468C460.655 253.689 460.375 254.776 459.9 255.729C459.424 256.683 458.828 257.471 458.111 258.095C457.393 258.743 456.578 259.215 455.667 259.513C454.756 259.81 453.81 259.925 452.828 259.857C451.751 259.782 450.771 259.509 449.89 259.039C449.032 258.57 448.338 258.005 447.807 257.342C447.189 257.925 446.412 258.364 445.478 258.66C444.541 258.98 443.546 259.103 442.493 259.03C441.511 258.961 440.578 258.716 439.693 258.294C438.83 257.897 438.075 257.339 437.428 256.62C436.804 255.903 436.323 255.04 435.984 254.03C435.644 253.044 435.516 251.94 435.601 250.719L436.802 233.445ZM451.945 242.979L451.478 249.695C451.448 250.126 451.566 250.507 451.832 250.838C452.121 251.171 452.493 251.353 452.948 251.385C453.379 251.415 453.749 251.284 454.058 250.993C454.391 250.703 454.573 250.343 454.603 249.912L455.07 243.196L451.945 242.979ZM442.5 242.322L442.033 249.038C442.003 249.469 442.133 249.851 442.422 250.183C442.712 250.516 443.084 250.699 443.539 250.73C443.97 250.76 444.34 250.63 444.649 250.338C444.982 250.049 445.163 249.688 445.193 249.257L445.66 242.542L442.5 242.322Z" fill="white"/>
<path d="M454.72 288.098L428.29 290.71L430.239 282.108L432.426 281.902L434.51 272.703L432.625 271.575L434.574 262.973L457.298 276.722L454.72 288.098ZM440.185 276.167L439.032 281.258L447.267 280.429L440.185 276.167Z" fill="white"/>
<path d="M446.598 314.102L431.139 307.495L429.484 311.368L444.943 317.975L441.647 325.688L426.187 319.081L424.532 322.954L439.991 329.561L436.695 337.274L413.523 327.371L426.722 296.485L449.895 306.388L446.598 314.102Z" fill="white"/>
<path d="M410.613 331.914L431.924 345.363L420.722 363.112L415.395 359.75L422.119 349.094L419.471 347.423L413.86 356.312L408.533 352.95L414.143 344.06L411.464 342.369L404.739 353.025L399.411 349.662L410.613 331.914Z" fill="white"/>
<path d="M381.373 369.889C382.642 368.514 384.112 367.453 385.78 366.707C387.432 365.978 389.132 365.571 390.877 365.484C392.625 365.431 394.351 365.702 396.056 366.296C397.761 366.89 399.302 367.822 400.677 369.092C402.053 370.361 403.105 371.823 403.833 373.475C404.579 375.143 404.987 376.842 405.056 378.572C405.127 380.336 404.865 382.07 404.271 383.775C403.66 385.498 402.72 387.047 401.45 388.423C400.181 389.798 398.719 390.85 397.067 391.579C395.415 392.307 393.715 392.698 391.968 392.751C390.222 392.838 388.488 392.576 386.765 391.965C385.06 391.371 383.519 390.439 382.144 389.169C380.768 387.9 379.716 386.439 378.988 384.786C378.259 383.134 377.86 381.426 377.789 379.663C377.72 377.933 377.983 376.216 378.577 374.51C379.171 372.805 380.103 371.265 381.373 369.889ZM387.483 375.53C386.995 376.059 386.636 376.642 386.407 377.28C386.179 377.951 386.078 378.626 386.106 379.304C386.133 379.983 386.295 380.639 386.592 381.272C386.873 381.923 387.286 382.501 387.833 383.006C388.38 383.511 388.989 383.877 389.66 384.105C390.316 384.35 390.982 384.459 391.661 384.432C392.357 384.421 393.021 384.268 393.655 383.97C394.29 383.707 394.851 383.311 395.34 382.782C395.828 382.253 396.186 381.653 396.414 380.981C396.66 380.326 396.76 379.651 396.715 378.957C396.688 378.278 396.534 377.614 396.253 376.962C395.956 376.329 395.534 375.76 394.988 375.255C394.441 374.751 393.84 374.375 393.185 374.13C392.513 373.902 391.838 373.802 391.16 373.829C390.482 373.856 389.817 374.01 389.166 374.291C388.533 374.588 387.972 375.001 387.483 375.53Z" fill="white"/>
<mask id="mask0_227_166" style="mask-type:alpha" maskUnits="userSpaceOnUse" x="31" y="31" width="401" height="401">
<path d="M431.42 231.694C431.42 342.151 341.877 431.694 231.42 431.694C120.963 431.694 31.4199 342.151 31.4199 231.694C31.4199 121.237 120.963 31.6943 231.42 31.6943C341.877 31.6943 431.42 121.237 431.42 231.694Z" fill="#CF1421"/>
</mask>
<g mask="url(#mask0_227_166)">
<g filter="url(#filter0_f_227_166)">
<circle cx="176.5" cy="128.5" r="59.5" fill="url(#paint0_radial_227_166)"/>
</g>
<g filter="url(#filter1_f_227_166)">
<circle cx="305.5" cy="364.5" r="59.5" fill="url(#paint1_radial_227_166)"/>
</g>
<g filter="url(#filter2_f_227_166)">
<circle cx="347.5" cy="222.5" r="59.5" fill="url(#paint2_radial_227_166)"/>
</g>
<g filter="url(#filter3_f_227_166)">
<circle cx="110.5" cy="284.5" r="59.5" fill="#CC00FF"/>
</g>
</g>
<path d="M351.3 428.296L347.06 421.059L339.791 425.316L344.031 432.554L336.793 436.794L324.056 415.05L331.294 410.81L335.533 418.048L342.802 413.79L338.562 406.552L345.8 402.313L358.537 424.056L351.3 428.296Z" fill="white"/>
<path d="M307.218 421.06C308.955 420.363 310.737 420.036 312.565 420.079C314.37 420.131 316.079 420.492 317.693 421.164C319.294 421.866 320.736 422.852 322.021 424.121C323.306 425.39 324.297 426.893 324.994 428.631C325.69 430.368 326.013 432.139 325.961 433.944C325.918 435.772 325.557 437.481 324.876 439.073C324.183 440.696 323.201 442.15 321.932 443.434C320.641 444.728 319.127 445.723 317.389 446.42C315.652 447.117 313.881 447.44 312.076 447.388C310.271 447.336 308.568 446.959 306.967 446.256C305.353 445.585 303.9 444.603 302.606 443.312C301.321 442.043 300.33 440.54 299.633 438.803C298.937 437.065 298.614 435.294 298.666 433.489C298.718 431.684 299.09 429.97 299.784 428.347C300.464 426.755 301.439 425.317 302.708 424.032C303.977 422.748 305.48 421.757 307.218 421.06ZM310.313 428.778C309.645 429.046 309.071 429.419 308.59 429.896C308.095 430.405 307.715 430.971 307.448 431.595C307.181 432.22 307.046 432.882 307.042 433.581C307.016 434.29 307.142 434.989 307.419 435.68C307.696 436.371 308.088 436.963 308.597 437.457C309.083 437.96 309.638 438.345 310.262 438.612C310.896 438.901 311.562 439.048 312.262 439.051C312.948 439.086 313.625 438.97 314.294 438.702C314.962 438.434 315.543 438.045 316.037 437.537C316.54 437.051 316.921 436.484 317.179 435.838C317.446 435.214 317.592 434.547 317.618 433.839C317.622 433.139 317.485 432.444 317.208 431.753C316.931 431.063 316.55 430.466 316.064 429.963C315.555 429.469 314.989 429.088 314.365 428.821C313.74 428.554 313.074 428.408 312.365 428.382C311.666 428.378 310.982 428.51 310.313 428.778Z" fill="white"/>
<path d="M281.366 430.946L285.993 455.718L268.972 458.897C267.768 459.122 266.646 459.124 265.603 458.904C264.561 458.683 263.648 458.304 262.864 457.767C262.057 457.234 261.394 456.565 260.878 455.758C260.361 454.951 260.012 454.064 259.831 453.097C259.633 452.035 259.651 451.019 259.884 450.047C260.122 449.099 260.495 448.285 261.003 447.604C260.284 447.153 259.663 446.512 259.142 445.681C258.597 444.855 258.228 443.923 258.034 442.885C257.853 441.918 257.856 440.953 258.042 439.99C258.21 439.056 258.56 438.185 259.092 437.377C259.63 436.593 260.344 435.91 261.237 435.329C262.106 434.751 263.142 434.35 264.345 434.126L281.366 430.946ZM275.945 448L269.328 449.236C268.903 449.315 268.564 449.525 268.31 449.865C268.061 450.229 267.978 450.635 268.061 451.083C268.141 451.508 268.36 451.833 268.72 452.059C269.084 452.309 269.478 452.394 269.903 452.314L276.52 451.078L275.945 448ZM274.207 438.692L267.589 439.928C267.165 440.008 266.828 440.229 266.578 440.593C266.329 440.957 266.246 441.364 266.33 441.812C266.409 442.236 266.628 442.562 266.988 442.788C267.352 443.037 267.746 443.122 268.171 443.043L274.789 441.807L274.207 438.692Z" fill="white"/>
<path d="M232.63 462.077L223.189 451.807L213.058 461.396L204.675 461.105L205.55 435.92L213.933 436.212L213.461 449.811L223.573 440.761L233.033 450.492L233.505 436.892L241.888 437.183L241.013 462.368L232.63 462.077Z" fill="white"/>
<path d="M184.593 431.371L182.13 443.066L192.836 433.107L201.044 434.835L195.851 459.494L187.643 457.766L190.106 446.07L179.4 456.03L171.192 454.301L176.385 429.642L184.593 431.371Z" fill="white"/>
<path d="M172.018 428.367L163.254 451.994L149.483 446.886C148.133 446.385 146.957 445.655 145.957 444.695C144.934 443.726 144.15 442.629 143.606 441.404C143.032 440.192 142.711 438.883 142.644 437.476C142.569 436.091 142.782 434.724 143.283 433.374C143.784 432.024 144.514 430.849 145.474 429.848C146.434 428.847 147.531 428.064 148.765 427.498C149.968 426.946 151.273 426.636 152.68 426.569C154.065 426.494 155.432 426.707 156.782 427.208L162.689 429.399L164.154 425.45L172.018 428.367ZM159.772 437.263L153.865 435.072C153.302 434.864 152.759 434.88 152.234 435.12C151.71 435.361 151.348 435.751 151.147 436.291C150.939 436.854 150.955 437.397 151.195 437.922C151.436 438.446 151.837 438.813 152.4 439.021L158.307 441.212L159.772 437.263Z" fill="white"/>
<path d="M128.672 409.231L129.773 407.457L136.93 411.901L131.343 420.763L129.905 419.87L127.095 424.397C126.183 425.865 125.047 427.08 123.687 428.043C122.305 428.994 120.838 429.651 119.285 430.014C117.732 430.377 116.132 430.429 114.485 430.169C112.825 429.93 111.262 429.355 109.794 428.443C108.326 427.532 107.116 426.385 106.166 425.004C105.203 423.644 104.54 422.186 104.176 420.633C103.793 419.067 103.731 417.461 103.99 415.814C104.23 414.155 104.805 412.591 105.717 411.123L108.527 406.596L107.12 405.723L112.585 396.785L119.742 401.229L118.64 403.002L128.672 409.231ZM122.779 415.446L115.653 411.021L112.843 415.548C112.539 416.037 112.34 416.563 112.245 417.125C112.116 417.696 112.098 418.249 112.188 418.785C112.279 419.322 112.485 419.831 112.807 420.314C113.109 420.784 113.535 421.189 114.085 421.531C114.616 421.86 115.168 422.062 115.743 422.137C116.298 422.199 116.836 422.151 117.357 421.995C117.878 421.838 118.376 421.582 118.851 421.227C119.292 420.88 119.665 420.462 119.969 419.972L122.779 415.446Z" fill="white"/>
<path d="M94.6889 384.499L86.9066 393.57L101.082 389.984L107.449 395.445L91.0402 414.571L84.674 409.11L92.4563 400.039L78.2805 403.625L71.9142 398.163L88.3226 379.037L94.6889 384.499Z" fill="white"/>
<path d="M66.4838 392.692L56.8304 381.765C56.02 380.848 55.4499 379.895 55.12 378.905C54.7743 377.898 54.6307 376.92 54.6894 375.971C54.7481 375.022 54.991 374.119 55.4181 373.262C55.8452 372.404 56.4185 371.657 57.138 371.022C58.0552 370.211 59.0045 369.709 59.9857 369.514C60.933 369.318 61.828 369.28 62.6707 369.4C62.6554 368.549 62.8125 367.657 63.1422 366.726C63.456 365.776 64.0716 364.896 64.9888 364.085C65.7083 363.45 66.5289 362.965 67.4507 362.631C68.3546 362.313 69.2808 362.183 70.2293 362.242C71.1778 362.3 72.1307 362.563 73.088 363.031C74.0294 363.48 74.9053 364.163 75.7157 365.081L85.3691 376.007L80.6478 380.178L72.4007 370.844C72.1146 370.52 71.7514 370.344 71.311 370.317C70.8706 370.29 70.4796 370.427 70.1378 370.729C69.8141 371.015 69.6476 371.37 69.6383 371.795C69.6111 372.235 69.7405 372.617 70.0265 372.941L76.8912 380.711L72.1698 384.882L65.3052 377.112C65.0192 376.789 64.6649 376.605 64.2425 376.562C63.8021 376.535 63.4111 376.672 63.0693 376.974C62.7456 377.26 62.5791 377.615 62.5698 378.04C62.5426 378.48 62.672 378.862 62.958 379.186L71.2051 388.521L66.4838 392.692Z" fill="white"/>
<path d="M35.4744 352.688L52.005 331.9L56.8213 339.289L55.4456 341.003L60.5962 348.904L62.7189 348.337L67.5352 355.726L41.8437 362.46L35.4744 352.688ZM54.1586 350.565L51.3081 346.192L46.1686 352.679L54.1586 350.565Z" fill="white"/>
<path d="M42.6364 311.848L31.7354 316.749L46.0907 319.531L49.5303 327.181L26.5465 337.515L23.1069 329.865L34.0078 324.964L19.6525 322.181L16.2129 314.531L39.1968 304.198L42.6364 311.848ZM13.4132 332.447C14.0918 332.142 14.5784 331.673 14.8729 331.04C15.1675 330.408 15.1475 329.72 14.8129 328.975C14.4783 328.231 13.9767 327.759 13.3081 327.56C12.6396 327.361 11.966 327.414 11.2874 327.719L8.74834 322.071C9.51226 321.78 10.3768 321.655 11.342 321.694C12.2973 321.712 13.2558 321.913 14.2176 322.296C15.1794 322.68 16.1006 323.265 16.9812 324.053C17.8302 324.83 18.5302 325.831 19.0813 327.056C19.6324 328.282 19.9215 329.481 19.9485 330.653C19.9437 331.813 19.7655 332.88 19.4139 333.854C19.0623 334.828 18.5811 335.689 17.9702 336.437C17.3495 337.163 16.6769 337.716 15.9523 338.094L13.4132 332.447Z" fill="white"/>
<path d="M11.0825 298.674L19.153 296.388L16.8573 288.283L8.78676 290.569L6.50087 282.498L30.7471 275.631L33.033 283.701L24.9624 285.987L27.2581 294.092L35.3287 291.807L37.6146 299.877L13.3684 306.745L11.0825 298.674Z" fill="white"/>
<path d="M2.23692 254.101L26.2575 242.769L27.3088 251.527L25.3172 252.455L26.4414 261.819L28.596 262.25L29.6473 271.007L3.62715 265.682L2.23692 254.101ZM19.9331 260.461L19.311 255.279L11.8321 258.823L19.9331 260.461Z" fill="white"/>
<path d="M26.0673 227.601L0.949936 225.562L2.35097 208.303C2.45 207.083 2.74266 205.999 3.22893 205.051C3.71521 204.104 4.32044 203.322 5.0446 202.707C5.77071 202.067 6.59088 201.604 7.50509 201.317C8.41931 201.03 9.3668 200.927 10.3476 201.006C11.424 201.094 12.4003 201.377 13.2763 201.858C14.1283 202.336 14.8162 202.91 15.3398 203.579C15.9644 203.003 16.7458 202.573 17.6839 202.288C18.624 201.979 19.6203 201.867 20.6728 201.953C21.6536 202.032 22.5839 202.288 23.4638 202.721C24.3217 203.128 25.0704 203.694 25.7097 204.42C26.3251 205.144 26.7964 206.013 27.1234 207.027C27.4524 208.017 27.5674 209.122 27.4683 210.342L26.0673 227.601ZM11.0355 217.893L11.5802 211.183C11.6151 210.753 11.5017 210.37 11.2399 210.036C10.9542 209.7 10.5841 209.513 10.1295 209.476C9.69896 209.441 9.32752 209.568 9.01522 209.855C8.679 210.141 8.49341 210.499 8.45846 210.93L7.91378 217.64L11.0355 217.893ZM20.4725 218.659L21.0172 211.949C21.0521 211.519 20.9267 211.135 20.641 210.799C20.3552 210.463 19.9851 210.276 19.5306 210.239C19.1 210.204 18.7286 210.331 18.4163 210.619C18.0801 210.904 17.8945 211.262 17.8595 211.693L17.3149 218.403L20.4725 218.659Z" fill="white"/>
<path d="M8.69909 173.067L35.1578 170.757L33.1106 179.336L30.9209 179.517L28.7317 188.691L30.6039 189.841L28.5567 198.42L5.99181 184.412L8.69909 173.067ZM23.0967 185.163L24.3083 180.086L16.0647 180.82L23.0967 185.163Z" fill="white"/>
<path d="M17.0834 147.099L32.4679 153.879L34.1664 150.024L18.7819 143.245L22.1644 135.569L37.5489 142.348L39.2474 138.494L23.8629 131.715L27.2454 124.039L50.3057 134.201L36.7612 164.937L13.7009 154.775L17.0834 147.099Z" fill="white"/>
<path d="M53.3108 129.558L32.1495 115.875L43.5458 98.2505L48.8362 101.671L41.9945 112.252L44.6245 113.953L50.3325 105.125L55.6228 108.546L49.9149 117.374L52.5751 119.094L59.4169 108.513L64.7072 111.934L53.3108 129.558Z" fill="white"/>
<path d="M82.589 92.2904C81.3043 93.652 79.8236 94.6968 78.147 95.4246C76.4869 96.135 74.7835 96.5241 73.0367 96.5919C71.289 96.6257 69.5658 96.3363 67.8672 95.7235C66.1686 95.1108 64.6385 94.1621 63.2769 92.8774C61.9153 91.5927 60.8793 90.1203 60.1689 88.4602C59.441 86.7836 59.0519 85.0801 59.0016 83.3498C58.9503 81.5857 59.231 79.8543 59.8438 78.1556C60.473 76.4396 61.4299 74.9007 62.7146 73.5391C63.9993 72.1775 65.4717 71.1415 67.1318 70.4311C68.792 69.7207 70.4959 69.3486 72.2436 69.3147C73.9904 69.247 75.7218 69.5277 77.4378 70.1569C79.1364 70.7696 80.6666 71.7184 82.0282 73.003C83.3898 74.2877 84.4258 75.7601 85.1362 77.4202C85.8466 79.0804 86.2274 80.7926 86.2787 82.5567C86.3291 84.287 86.0478 86.0015 85.4351 87.7001C84.8223 89.3987 83.8736 90.9288 82.589 92.2904ZM76.5402 86.5835C77.0344 86.0598 77.3995 85.4804 77.6357 84.8454C77.8709 84.1764 77.9787 83.5027 77.9589 82.8241C77.9392 82.1456 77.7843 81.488 77.4941 80.8512C77.2204 80.1971 76.813 79.6147 76.2718 79.1041C75.7307 78.5935 75.1256 78.2206 74.4567 77.9854C73.8042 77.7328 73.1386 77.6163 72.4601 77.636C71.7641 77.6393 71.0978 77.786 70.461 78.0761C69.8233 78.3324 69.2574 78.7223 68.7633 79.246C68.2692 79.7697 67.9046 80.3661 67.6693 81.035C67.4167 81.6875 67.3089 82.3613 67.3461 83.0563C67.3658 83.7348 67.5126 84.4012 67.7862 85.0554C68.0764 85.6921 68.492 86.2657 69.0332 86.7763C69.5744 87.2869 70.1712 87.6685 70.8237 87.9212C71.4927 88.1564 72.1664 88.2641 72.8449 88.2444C73.5235 88.2247 74.1898 88.078 74.844 87.8043C75.4807 87.5141 76.0461 87.1072 76.5402 86.5835Z" fill="white"/>
<path d="M94.6787 78.4037L79.1436 58.6075L85.7706 53.4069L92.4825 61.9598L91.4691 48.8892L99.0024 42.9774L100.182 58.068L114.56 62.8019L107.026 68.7137L94.5716 64.6219L101.306 73.2031L94.6787 78.4037Z" fill="white"/>
<path d="M370.413 382.995L385.948 402.791L379.321 407.992L372.609 399.439L373.623 412.51L366.089 418.422L364.909 403.331L350.532 398.597L358.065 392.685L370.52 396.777L363.786 388.196L370.413 382.995Z" fill="white"/>
<path d="M113.582 33.8561L117.742 41.1402L125.057 36.9629L120.898 29.6788L128.182 25.5194L140.678 47.4028L133.394 51.5622L129.234 44.2782L121.919 48.4555L126.079 55.7395L118.795 59.899L106.298 38.0156L113.582 33.8561Z" fill="white"/>
<path d="M156.862 41.8332C155.116 42.5105 153.33 42.8175 151.504 42.7541C149.699 42.6821 147.994 42.3013 146.388 41.6118C144.795 40.8912 143.364 39.8892 142.093 38.6059C140.823 37.3226 139.849 35.8084 139.172 34.0632C138.494 32.3181 138.192 30.5433 138.264 28.739C138.327 26.9123 138.708 25.207 139.406 23.6231C140.118 22.0081 141.116 20.5654 142.399 19.295C143.705 18.0159 145.23 17.0377 146.975 16.3604C148.72 15.6831 150.495 15.3805 152.299 15.4525C154.104 15.5246 155.802 15.9209 157.395 16.6414C159.001 17.331 160.444 18.3286 161.723 19.6342C162.993 20.9175 163.967 22.4318 164.644 24.1769C165.322 25.9221 165.624 27.6968 165.552 29.5012C165.48 31.3055 165.088 33.0151 164.376 34.6301C163.678 36.2141 162.688 37.6412 161.404 38.9116C160.121 40.182 158.607 41.1559 156.862 41.8332ZM153.853 34.0806C154.524 33.8201 155.103 33.4539 155.589 32.982C156.089 32.4791 156.476 31.917 156.749 31.2959C157.023 30.6747 157.166 30.0143 157.178 29.3147C157.212 28.6064 157.094 27.9055 156.825 27.2119C156.556 26.5183 156.17 25.9215 155.667 25.4216C155.186 24.9131 154.635 24.5219 154.014 24.2481C153.384 23.9519 152.719 23.798 152.02 23.7863C151.334 23.7436 150.655 23.8525 149.984 24.113C149.313 24.3735 148.727 24.7552 148.227 25.2582C147.719 25.7387 147.332 26.3008 147.067 26.9443C146.793 27.5655 146.639 28.2302 146.605 28.9385C146.593 29.6381 146.722 30.3347 146.991 31.0283C147.261 31.7219 147.635 32.323 148.116 32.8316C148.619 33.3315 149.181 33.7183 149.802 33.9921C150.423 34.2659 151.088 34.4198 151.796 34.4539C152.496 34.4655 153.181 34.3411 153.853 34.0806Z" fill="white"/>
<path d="M182.984 32.02L178.642 7.19692L195.699 4.21322C196.904 4.00231 198.027 4.01303 199.067 4.24538C200.106 4.47772 201.015 4.86698 201.793 5.41313C202.594 5.95515 203.249 6.63251 203.756 7.4452C204.264 8.25788 204.602 9.14887 204.772 10.1181C204.958 11.182 204.929 12.1983 204.684 13.1669C204.435 14.1119 204.053 14.9219 203.537 15.5968C204.251 16.0567 204.864 16.7048 205.376 17.5411C205.911 18.3733 206.27 19.3095 206.452 20.3497C206.622 21.319 206.608 22.2838 206.41 23.2442C206.232 24.1768 205.872 25.0438 205.33 25.8452C204.784 26.6229 204.061 27.2975 203.162 27.869C202.287 28.4363 201.247 28.8254 200.041 29.0363L182.984 32.02ZM188.6 15.0301L195.232 13.8701C195.657 13.7957 195.999 13.5897 196.257 13.2523C196.51 12.8912 196.598 12.4861 196.519 12.0369C196.445 11.6113 196.229 11.2836 195.872 11.0537C195.511 10.8001 195.118 10.7105 194.692 10.785L188.061 11.945L188.6 15.0301ZM190.232 24.3565L196.863 23.1965C197.289 23.1221 197.628 22.9043 197.882 22.5432C198.135 22.1821 198.223 21.777 198.144 21.3278C198.07 20.9023 197.854 20.5745 197.497 20.3446C197.136 20.091 196.743 20.0015 196.317 20.0759L189.686 21.2359L190.232 24.3565Z" fill="white"/>
<path d="M232.058 1.27231L241.38 11.6509L251.621 2.17888L260 2.56717L258.834 27.7402L250.455 27.3519L251.085 13.7585L240.868 22.6911L231.522 12.8519L230.892 26.4453L222.513 26.057L223.679 0.884015L232.058 1.27231Z" fill="white"/>
<path d="M279.915 32.4269L282.511 20.7604L271.692 30.5967L263.504 28.7743L268.979 4.17624L277.167 5.99863L274.57 17.6651L285.39 7.82885L293.577 9.65124L288.102 34.2493L279.915 32.4269Z" fill="white"/>
<path d="M291.591 35.2041L300.532 11.6437L314.265 16.8553C315.611 17.3662 316.781 18.1054 317.774 19.0728C318.79 20.0487 319.565 21.1515 320.1 22.3812C320.665 23.5969 320.976 24.9085 321.032 26.3161C321.097 27.7012 320.874 29.0669 320.363 30.4132C319.852 31.7595 319.113 32.9293 318.145 33.9227C317.178 34.9161 316.075 35.6912 314.837 36.2481C313.63 36.7911 312.322 37.0908 310.915 37.147C309.53 37.2118 308.164 36.9887 306.818 36.4777L300.928 34.2424L299.433 38.1803L291.591 35.2041ZM303.904 26.4001L309.794 28.6355C310.355 28.8484 310.899 28.8365 311.425 28.5998C311.951 28.3631 312.316 27.9755 312.521 27.437C312.734 26.876 312.722 26.3324 312.485 25.8062C312.248 25.28 311.849 24.9104 311.288 24.6975L305.398 22.4622L303.904 26.4001Z" fill="white"/>
<path d="M335.961 55.2021L334.84 56.9637L327.733 52.4416L333.417 43.6416L334.845 44.5499L337.705 40.0547C338.632 38.5968 339.782 37.3938 341.153 36.4457C342.545 35.5106 344.019 34.8699 345.576 34.5237C347.133 34.1776 348.734 34.1434 350.378 34.4213C352.034 34.6788 353.592 35.2714 355.05 36.1991C356.507 37.1267 357.704 38.2863 358.639 39.6778C359.587 41.049 360.234 42.5133 360.581 44.0705C360.947 45.6406 360.991 47.2476 360.713 48.8913C360.456 50.548 359.863 52.1053 358.936 53.5632L356.075 58.0584L357.473 58.9474L351.91 67.8246L344.802 63.3025L345.923 61.5408L335.961 55.2021ZM341.922 49.0528L348.998 53.5556L351.859 49.0604C352.168 48.5744 352.373 48.0507 352.474 47.4893C352.609 46.9205 352.633 46.3673 352.549 45.8299C352.464 45.2924 352.263 44.7807 351.947 44.2947C351.65 43.8217 351.229 43.4113 350.682 43.0634C350.156 42.7284 349.605 42.5205 349.031 42.4395C348.477 42.3714 347.938 42.4129 347.416 42.5639C346.893 42.7148 346.392 42.9652 345.914 43.315C345.468 43.6574 345.091 44.0716 344.782 44.5575L341.922 49.0528Z" fill="white"/>
<path d="M369.445 80.0704L377.325 71.0846L363.111 74.5158L356.805 68.9851L373.421 50.0392L379.727 55.57L371.847 64.5557L386.061 61.1245L392.367 66.6553L375.751 85.6012L369.445 80.0704Z" fill="white"/>
<path d="M398.078 72.4747L407.611 83.5058C408.412 84.4319 408.971 85.3915 409.29 86.3846C409.625 87.3959 409.758 88.3755 409.689 89.3233C409.62 90.2711 409.367 91.1716 408.931 92.0246C408.494 92.8776 407.913 93.618 407.187 94.2457C406.261 95.0461 405.306 95.5381 404.323 95.7217C403.373 95.9078 402.478 95.9362 401.637 95.8069C401.643 96.6581 401.476 97.5477 401.136 98.4759C400.812 99.4221 400.187 100.295 399.261 101.096C398.534 101.724 397.708 102.199 396.783 102.523C395.876 102.832 394.948 102.951 394 102.882C393.052 102.813 392.102 102.54 391.15 102.062C390.214 101.603 389.346 100.91 388.545 99.9837L379.012 88.9525L383.778 84.8331L391.923 94.2572C392.205 94.5841 392.567 94.7635 393.007 94.7956C393.447 94.8276 393.839 94.6946 394.184 94.3964C394.511 94.1139 394.682 93.7605 394.695 93.3361C394.727 92.896 394.602 92.5126 394.32 92.1857L387.54 84.3413L392.307 80.2219L399.086 88.0663C399.369 88.3931 399.721 88.5804 400.143 88.6281C400.583 88.6602 400.976 88.5271 401.321 88.229C401.647 87.9465 401.818 87.5931 401.832 87.1687C401.864 86.7286 401.738 86.3452 401.456 86.0183L393.311 76.5941L398.078 72.4747Z" fill="white"/>
<path d="M428.554 112.652L411.795 133.257L407.061 125.815L408.455 124.117L403.392 116.159L401.263 116.703L396.528 109.262L422.292 102.811L428.554 112.652ZM409.847 114.57L412.649 118.974L417.86 112.543L409.847 114.57Z" fill="white"/>
<path d="M421 153.452L431.955 148.673L417.632 145.73L414.278 138.042L437.376 127.966L440.73 135.655L429.775 140.433L444.098 143.376L447.452 151.064L424.354 161.14L421 153.452ZM450.452 133.181C449.77 133.478 449.278 133.942 448.977 134.571C448.675 135.2 448.687 135.888 449.013 136.636C449.34 137.384 449.836 137.862 450.502 138.069C451.169 138.275 451.843 138.23 452.525 137.933L455 143.608C454.233 143.89 453.367 144.006 452.403 143.956C451.448 143.927 450.491 143.716 449.534 143.322C448.577 142.928 447.662 142.332 446.79 141.534C445.95 140.748 445.261 139.739 444.724 138.508C444.186 137.276 443.911 136.074 443.897 134.901C443.915 133.742 444.105 132.677 444.467 131.707C444.83 130.737 445.321 129.881 445.94 129.14C446.569 128.421 447.247 127.876 447.976 127.505L450.452 133.181Z" fill="white"/>
<path d="M452.478 167.129L444.382 169.323L446.585 177.454L454.681 175.26L456.875 183.356L432.553 189.947L430.359 181.851L438.455 179.657L436.251 171.527L428.155 173.721L425.961 165.625L450.284 159.033L452.478 167.129Z" fill="white"/>
<path d="M460.759 210.976L436.652 222.123L435.668 213.358L437.666 212.446L436.614 203.072L434.463 202.626L433.479 193.861L459.457 199.385L460.759 210.976ZM443.112 204.48L443.694 209.668L451.2 206.181L443.112 204.48Z" fill="white"/>
<defs>
<filter id="filter0_f_227_166" x="27" y="-21" width="299" height="299" filterUnits="userSpaceOnUse" color-interpolation-filters="sRGB">
<feFlood flood-opacity="0" result="BackgroundImageFix"/>
<feBlend mode="normal" in="SourceGraphic" in2="BackgroundImageFix" result="shape"/>
<feGaussianBlur stdDeviation="45" result="effect1_foregroundBlur_227_166"/>
</filter>
<filter id="filter1_f_227_166" x="156" y="215" width="299" height="299" filterUnits="userSpaceOnUse" color-interpolation-filters="sRGB">
<feFlood flood-opacity="0" result="BackgroundImageFix"/>
<feBlend mode="normal" in="SourceGraphic" in2="BackgroundImageFix" result="shape"/>
<feGaussianBlur stdDeviation="45" result="effect1_foregroundBlur_227_166"/>
</filter>
<filter id="filter2_f_227_166" x="198" y="73" width="299" height="299" filterUnits="userSpaceOnUse" color-interpolation-filters="sRGB">
<feFlood flood-opacity="0" result="BackgroundImageFix"/>
<feBlend mode="normal" in="SourceGraphic" in2="BackgroundImageFix" result="shape"/>
<feGaussianBlur stdDeviation="45" result="effect1_foregroundBlur_227_166"/>
</filter>
<filter id="filter3_f_227_166" x="-39" y="135" width="299" height="299" filterUnits="userSpaceOnUse" color-interpolation-filters="sRGB">
<feFlood flood-opacity="0" result="BackgroundImageFix"/>
<feBlend mode="normal" in="SourceGraphic" in2="BackgroundImageFix" result="shape"/>
<feGaussianBlur stdDeviation="45" result="effect1_foregroundBlur_227_166"/>
</filter>
<radialGradient id="paint0_radial_227_166" cx="0" cy="0" r="1" gradientUnits="userSpaceOnUse" gradientTransform="translate(176.038 127.696) rotate(58.8136) scale(74.891 76.6104)">
<stop stop-color="#4387FD"/>
<stop offset="0.65" stop-color="#3078F0"/>
<stop offset="0.9099" stop-color="#2B72EA"/>
<stop offset="1" stop-color="#286EE6"/>
</radialGradient>
<radialGradient id="paint1_radial_227_166" cx="0" cy="0" r="1" gradientUnits="userSpaceOnUse" gradientTransform="translate(305.609 364.235) rotate(18.4349) scale(67.805 46.9727)">
<stop stop-color="#0DA960"/>
<stop offset="1" stop-color="#069B5A"/>
</radialGradient>
<radialGradient id="paint2_radial_227_166" cx="0" cy="0" r="1" gradientUnits="userSpaceOnUse" gradientTransform="translate(347.443 222.449) rotate(33.6901) scale(65.6879 70.0093)">
<stop stop-color="#FFD24D"/>
<stop offset="1" stop-color="#F6C338"/>
</radialGradient>
</defs>
</svg>
