<svg width="525" height="191" viewBox="0 0 525 191" fill="none" xmlns="http://www.w3.org/2000/svg">
<g clip-path="url(#clip0_232_90)">
<path d="M62.9526 134.426L63.3772 139.888L41.3405 141.601L39.3984 114.182L43.8246 113.837L42.741 99.8997C42.3896 95.3793 42.9053 91.0442 44.2881 86.8943C45.7336 82.7396 47.8171 79.0721 50.5385 75.8919C53.2598 72.7117 56.5637 70.1179 60.45 68.1104C64.3314 66.0401 68.5323 64.8292 73.0527 64.4778C77.573 64.1264 81.9106 64.6735 86.0654 66.119C90.2152 67.5018 93.8803 69.5539 97.0604 72.2752C100.303 74.9918 102.929 78.2932 104.936 82.1795C107.006 86.0609 108.217 90.2618 108.569 94.7822L109.652 108.72L113.984 108.383L116.303 135.773L94.2663 137.486L93.8417 132.024L62.9526 134.426ZM65.7671 112.132L87.7097 110.426L86.6261 96.488C86.509 94.9812 86.1142 93.5592 85.4418 92.2219C84.8273 90.8169 84.0077 89.6174 82.983 88.6233C81.9582 87.6292 80.7309 86.8719 79.3008 86.3515C77.9336 85.8262 76.4024 85.6294 74.7073 85.7612C73.0749 85.8881 71.5925 86.3191 70.2601 87.0543C68.9905 87.7846 67.9263 88.7201 67.0675 89.8606C66.2088 91.0011 65.553 92.3153 65.1002 93.8033C64.7053 95.2235 64.5665 96.687 64.6836 98.1938L65.7671 112.132ZM167.481 126.299L165.051 95.0336L145.445 128.013L123.502 129.718L118.377 63.7965L140.32 62.0907L142.75 93.3565L162.357 60.3775L184.299 58.6717L189.424 124.594L167.481 126.299ZM192.756 58.0142L230.897 55.0492C234.099 54.8002 236.997 55.1118 239.591 55.9839C242.248 56.8511 244.524 58.0953 246.419 59.7166C248.313 61.3378 249.822 63.2733 250.944 65.5231C252.066 67.7728 252.725 70.1533 252.92 72.6646C253.169 75.8666 252.722 78.6489 251.58 81.0115C250.495 83.3065 249.161 85.2419 247.578 86.8177C249.385 88.1299 251.005 89.8673 252.436 92.0299C253.93 94.1876 254.802 96.8674 255.051 100.069C255.246 102.581 254.966 105.066 254.209 107.525C253.448 109.921 252.257 112.066 250.636 113.961C249.014 115.855 246.958 117.436 244.467 118.704C242.039 119.966 239.224 120.722 236.022 120.971L197.881 123.936L196.6 107.456L229.184 104.922C230.314 104.835 231.256 104.351 232.008 103.471C232.761 102.592 233.091 101.555 232.998 100.363C232.911 99.2324 232.429 98.3224 231.555 97.6325C230.675 96.8798 229.67 96.5473 228.54 96.6352L201.418 98.7437L200.137 82.2632L227.259 80.1547C228.389 80.0669 229.333 79.6145 230.09 78.7977C230.843 77.918 231.173 76.8818 231.08 75.6889C230.992 74.5588 230.511 73.6488 229.636 72.9589C228.757 72.2061 227.752 71.8737 226.622 71.9616L194.038 74.4947L192.756 58.0142ZM304.734 49.309L331.801 113.525L308.729 115.319L306.515 109.996L281.841 111.914L280.476 117.515L257.404 119.309L274.221 51.6811L304.734 49.309ZM286.116 95.0014L299.771 93.9399L291.301 73.9444L286.116 95.0014ZM381.394 109.67L378.963 78.4038L359.357 111.383L337.415 113.089L332.29 47.1668L354.233 45.4609L356.663 76.7267L376.269 43.7478L398.212 42.0419L403.337 107.964L381.394 109.67ZM356.457 19.2336C356.608 21.1799 357.334 22.7972 358.634 24.0857C359.935 25.3742 361.652 25.9355 363.787 25.7695C365.921 25.6036 367.531 24.7836 368.617 23.3097C369.702 21.8357 370.169 20.1256 370.018 18.1794L386.216 16.9201C386.256 19.0645 385.799 21.3107 384.845 23.6587C383.953 26.0019 382.608 28.1908 380.808 30.2256C379.008 32.2604 376.744 34.0154 374.017 35.4907C371.347 36.8984 368.254 37.7388 364.738 38.0122C361.223 38.2855 358.006 37.9355 355.088 36.9623C352.228 35.9214 349.751 34.5349 347.659 32.8027C345.566 31.0705 343.867 29.1183 342.561 26.9459C341.318 24.7687 340.551 22.6177 340.259 20.4928L356.457 19.2336ZM429.553 39.6054L431.259 61.548L453.296 59.8348L451.59 37.8922L473.533 36.1864L478.658 102.108L456.715 103.814L455.009 81.8715L432.972 83.5847L434.678 105.527L412.736 107.233L407.611 41.3112L429.553 39.6054Z" fill="#FFFCFC"/>
<path d="M486.502 129.213L38.853 164.014L30.7923 60.3269L478.441 25.5226L486.502 129.213Z" stroke="#2E65F4"/>
<path d="M36.6826 136.095L484.332 101.294" stroke="#2E65F4"/>
<rect x="32.9824" y="159.452" width="10" height="10" transform="rotate(-4.44529 32.9824 159.452)" fill="white"/>
<rect x="473.567" y="20.8864" width="10" height="10" transform="rotate(-4.44529 473.567 20.8864)" fill="white"/>
<rect x="480.632" y="124.651" width="10" height="10" transform="rotate(-4.44529 480.632 124.651)" fill="white"/>
<rect x="24.9209" y="55.7645" width="10" height="10" transform="rotate(-4.44529 24.9209 55.7645)" fill="white"/>
<g filter="url(#filter0_d_232_90)">
<path fill-rule="evenodd" clip-rule="evenodd" d="M492.316 138.474L506.526 152.684L501.789 157.421L516 159L514.421 144.789L509.684 149.526L495.474 135.316L500.211 130.579L486 129L487.579 143.211L492.316 138.474V138.474Z" fill="#363B3E"/>
<path d="M509.684 147.895L497.105 135.316L501.026 131.395L502.724 129.697L500.338 129.432L486.127 127.853L484.694 127.694L484.853 129.127L486.432 143.338L486.697 145.724L488.395 144.026L492.316 140.105L504.895 152.684L500.974 156.605L499.276 158.303L501.662 158.568L515.873 160.147L517.306 160.306L517.147 158.873L515.568 144.662L515.303 142.276L513.605 143.974L509.684 147.895Z" stroke="white" stroke-opacity="0.8" stroke-width="2.30769"/>
</g>
</g>
<defs>
<filter id="filter0_d_232_90" x="476.465" y="121.772" width="49.0708" height="49.0704" filterUnits="userSpaceOnUse" color-interpolation-filters="sRGB">
<feFlood flood-opacity="0" result="BackgroundImageFix"/>
<feColorMatrix in="SourceAlpha" type="matrix" values="0 0 0 0 0 0 0 0 0 0 0 0 0 0 0 0 0 0 127 0" result="hardAlpha"/>
<feOffset dy="2.30769"/>
<feGaussianBlur stdDeviation="3.46154"/>
<feColorMatrix type="matrix" values="0 0 0 0 0 0 0 0 0 0 0 0 0 0 0 0 0 0 0.25 0"/>
<feBlend mode="normal" in2="BackgroundImageFix" result="effect1_dropShadow_232_90"/>
<feBlend mode="normal" in="SourceGraphic" in2="effect1_dropShadow_232_90" result="shape"/>
</filter>
<clipPath id="clip0_232_90">
<rect width="525" height="191" fill="white"/>
</clipPath>
</defs>
</svg>
