<svg width="209" height="220" viewBox="0 0 209 220" fill="none" xmlns="http://www.w3.org/2000/svg">
<g clip-path="url(#clip0_53_50)">
<path d="M45.7626 56.11L47.4632 59.0554L44.5178 60.7559L41.5724 62.4564L60.1647 94.6592L78.7569 126.862L76.0079 128.449L73.2589 130.036L71.5584 127.091L69.8806 124.185L66.985 125.699L64.0501 127.237L62.2771 124.438L60.5268 121.678L54.6754 125.057L48.7846 128.458L49.9985 130.742C50.724 131.998 51.4556 133.356 51.699 133.687C52.1403 134.27 51.7929 134.575 49.2403 136.049L46.2949 137.75L49.8093 143.837L53.3237 149.924L56.1905 148.269L59.0181 146.636L60.5538 149.205C61.5907 150.911 62.3539 151.779 62.8434 151.811C63.2709 151.826 64.6183 151.257 65.875 150.532L68.1135 149.239L71.1456 154.4C72.8401 157.245 74.3365 159.836 74.4333 160.095C74.6208 160.51 75.4742 160.174 77.6342 158.927L80.5795 157.227L83.9806 163.118L87.3816 169.008L90.327 167.308L93.2723 165.607L96.6733 171.498L100.074 177.389L103.02 175.688L105.965 173.988L109.366 179.879L112.767 185.769L115.713 184.069L118.658 182.368L120.358 185.314L122.059 188.259L151.513 171.254L180.966 154.249L177.701 148.594C173.983 142.153 173.968 142.581 177.738 140.404L180.055 139.066L176.631 133.136L173.23 127.246L175.857 125.991C177.653 125.111 178.55 124.488 178.604 124.038C178.642 123.65 177.28 120.928 175.54 118.005L172.372 112.608L175.239 110.953L178.066 109.321L177.318 108.025C174.999 103.918 159.854 77.6844 158.765 75.7994L157.434 73.5836L154.488 75.2841L151.543 76.9846L148.305 71.1044L145.051 65.2861L142.302 66.8732L139.553 68.4604L137.656 65.6284C135.804 62.8749 135.72 62.819 134.845 63.481C134.341 63.877 131.703 65.2949 129.004 66.6962L124.015 69.2102L122.45 66.5004L120.886 63.7907L117.941 65.4912L114.995 67.1917L113.295 64.2463L111.617 61.3402L105.776 64.5554L99.8957 67.7933L98.1227 64.9945L96.3724 62.2349L93.4663 63.9128L90.521 65.6133L88.8205 62.6679L87.1199 59.7225L81.4648 62.9875C76.3988 65.9124 75.7251 66.1966 75.166 65.6816C74.8441 65.3962 72.9456 62.1986 71.0001 58.5569C69.0546 54.9151 66.9067 51.2855 66.2448 50.4111L65.0568 48.8977L62.3471 50.4622L59.6766 52.004L57.9037 49.2051L56.1533 46.4456L50.116 49.7742L44.0395 53.1254L45.7626 56.11ZM76.3631 81.9034L93.2549 111.161L96.161 109.483L99.0671 107.805L98.299 105.84C97.85 104.79 96.9702 102.994 96.296 101.917C95.5992 100.801 91.5407 93.7714 87.1874 86.2312L79.3589 72.5813L84.857 69.407L90.355 66.2327L100.455 83.5454L110.617 100.875L113.749 99.224L116.841 97.596L110.152 86.0109L103.463 74.4257L108.697 71.247C111.597 69.4679 114.149 67.9942 114.391 67.9593C114.672 67.9018 117.369 72.2096 121.541 79.4355L128.207 90.9814L131.348 89.1675L134.49 87.3536L131.089 81.4629L127.711 75.6114L133.49 72.3796L139.229 69.1705L140.664 71.7459C141.441 73.1823 142.898 75.7969 143.958 77.5415L145.879 80.7783L148.824 79.0778L151.77 77.3773L161.814 94.7746L171.881 112.211L169.099 113.922C167.551 114.868 166.283 115.757 166.25 115.881C166.217 116.005 167.635 118.642 169.465 121.722L172.747 127.315L169.88 128.97L167.053 130.603L170.268 136.444L173.483 142.285L170.723 144.035L167.964 145.785L169.501 148.72L171.016 151.616L144.94 166.671L118.863 181.726L115.39 175.982L111.939 170.277L109.756 171.485C108.555 172.126 107.237 172.835 106.861 173C106.21 173.323 105.814 172.819 102.843 167.674L99.5558 161.98L96.6104 163.68L93.665 165.381L90.264 159.49L86.863 153.599L83.9176 155.3L80.9722 157L77.5712 151.109L74.1929 145.258L71.2973 146.773C68.0483 148.491 68.4653 148.67 66.0967 144.748L64.8784 142.729L62.0116 144.384L59.1448 146.039L55.7393 140.413L52.3731 134.764L58.0675 131.476L63.7619 128.189L65.5122 130.948L67.2852 133.747L70.1807 132.232L73.0763 130.718L74.8266 133.477L76.5769 136.237L79.4725 134.722L82.3681 133.207L84.1184 135.967L85.8687 138.726L88.9999 137.076L92.0918 135.448L70.0759 97.3149L48.0826 59.2214L53.777 55.9337L59.4714 52.6461L76.3631 81.9034Z" fill="#D30707"/>
</g>
<defs>
<clipPath id="clip0_53_50">
<rect width="141.5" height="172.318" fill="white" transform="translate(0 70.75) rotate(-30)"/>
</clipPath>
</defs>
</svg>
