<svg width="477" height="667" viewBox="0 0 477 667" fill="none" xmlns="http://www.w3.org/2000/svg">
<g clip-path="url(#clip0_52_21)">
<path fill-rule="evenodd" clip-rule="evenodd" d="M377 87.9041C377 90.4949 376.621 90.9577 374.5 90.9577C372.042 90.9577 372 91.0906 372 98.9539C372 106.817 372.042 106.95 374.5 106.95C376.5 106.95 377 107.45 377 109.449C377 111.781 377.333 111.948 382 111.948C386.667 111.948 387 111.781 387 109.449C387 107.617 387.533 106.95 389 106.95C390.833 106.95 391 106.284 391 98.9539C391 91.7153 390.817 90.9577 389.066 90.9577C387.7 90.9577 387.04 90.151 386.816 88.2089C386.527 85.6921 386.1 85.4342 381.75 85.1554C377.053 84.8545 377 84.8855 377 87.9041ZM400.709 85.5842C400.319 85.974 400 87.3423 400 88.6257C400 90.291 399.429 90.9577 398 90.9577C396.444 90.9577 396 91.6244 396 93.9563C396 96.2882 396.444 96.9549 398 96.9549C399.733 96.9549 400 97.6216 400 101.953C400 106.284 399.733 106.95 398 106.95C396.533 106.95 396 107.617 396 109.449C396 111.892 396.167 111.948 403.5 111.948C410.833 111.948 411 111.892 411 109.449C411 107.459 410.498 106.95 408.534 106.95C406.083 106.95 406.066 106.884 405.784 96.2052C405.521 86.2588 405.348 85.4382 403.459 85.1684C402.336 85.0074 401.099 85.1953 400.709 85.5842ZM419.713 85.5812C419.321 85.973 419 87.3423 419 88.6257C419 90.291 418.429 90.9577 417 90.9577C415.444 90.9577 415 91.6244 415 93.9563C415 96.4881 415.389 96.9549 417.5 96.9549C419.611 96.9549 420 96.4881 420 93.9563C420 91.0686 420.167 90.9577 424.5 90.9577C428.633 90.9577 429 91.1616 429 93.4565C429 95.4556 428.5 95.9553 426.5 95.9553C424.519 95.9553 424 96.4601 424 98.3842C424 100.143 423.379 100.902 421.75 101.133C420.139 101.362 419.41 102.233 419.184 104.202C418.96 106.144 418.3 106.95 416.934 106.95C415.538 106.95 415 107.645 415 109.449C415 111.939 415.033 111.948 424.5 111.948C433.967 111.948 434 111.939 434 109.449C434 107.154 433.633 106.95 429.5 106.95C425.367 106.95 425 106.746 425 104.451C425 102.452 425.5 101.953 427.5 101.953C429.5 101.953 430 101.453 430 99.4537C430 97.6216 430.533 96.9549 432 96.9549C433.556 96.9549 434 96.2882 434 93.9563C434 91.6583 433.548 90.9577 432.066 90.9577C430.7 90.9577 430.04 90.151 429.816 88.2089C429.529 85.7131 429.083 85.4332 424.963 85.1644C422.467 85.0014 420.105 85.1893 419.713 85.5812ZM443.667 85.6271C443.3 85.993 443 87.3423 443 88.6257C443 90.291 442.429 90.9577 441 90.9577C439.444 90.9577 439 91.6244 439 93.9563C439 96.4881 439.389 96.9549 441.5 96.9549C443.611 96.9549 444 96.4881 444 93.9563C444 91.0686 444.167 90.9577 448.5 90.9577C452.633 90.9577 453 91.1616 453 93.4565C453 95.4556 452.5 95.9553 450.5 95.9553C448.519 95.9553 448 96.4601 448 98.3842C448 100.143 447.379 100.902 445.75 101.133C444.139 101.362 443.41 102.233 443.184 104.202C442.96 106.144 442.3 106.95 440.934 106.95C439.538 106.95 439 107.645 439 109.449C439 111.939 439.033 111.948 448.5 111.948C457.967 111.948 458 111.939 458 109.449C458 107.154 457.633 106.95 453.5 106.95C449.367 106.95 449 106.746 449 104.451C449 102.619 449.533 101.953 451 101.953C452.467 101.953 453 101.286 453 99.4537C453 97.4546 453.5 96.9549 455.5 96.9549C457.611 96.9549 458 96.4881 458 93.9563C458 91.4244 457.611 90.9577 455.5 90.9577C453.389 90.9577 453 90.4909 453 87.9591C453 85.0884 452.815 84.9604 448.667 84.9604C446.283 84.9604 444.033 85.2603 443.667 85.6271ZM377 98.9539V106.95H381.5H386V98.9539V90.9577H381.5H377V98.9539ZM114 134.33C114 136.599 113.567 136.854 109.25 137.131C104.929 137.408 104.472 137.679 104.19 140.123C103.972 142.004 103.222 142.904 101.69 143.121C99.84 143.385 99.453 144.172 99.195 148.181L98.89 152.929H82.445H66V155.358C66 157.117 65.379 157.876 63.75 158.106C62.139 158.335 61.41 159.207 61.184 161.175C60.96 163.117 60.3 163.924 58.934 163.924C57.553 163.924 57 164.617 57 166.353C57 168.112 56.379 168.87 54.75 169.101C52.729 169.388 52.47 170.057 52.202 175.668C51.911 181.774 51.962 181.915 54.452 181.915C56.503 181.915 57 182.403 57 184.414C57 186.709 57.367 186.913 61.5 186.913C65.633 186.913 66 187.117 66 189.412C66 191.61 66.429 191.911 69.56 191.911C73.063 191.911 73.116 191.85 72.81 188.162C72.541 184.908 72.138 184.372 69.75 184.098C67.59 183.849 67 183.26 67 181.35C67 179.133 66.601 178.917 62.5 178.917C60.025 178.917 58 178.467 58 177.917C58 177.367 59.125 176.918 60.5 176.918C62.611 176.918 63 176.451 63 173.919C63 171.587 63.444 170.92 65 170.92C66.758 170.92 67 170.254 67 165.423V159.926H83H99V162.424C99 164.613 99.433 164.923 102.5 164.923H106V157.427C106 150.097 106.056 149.93 108.5 149.93C110.611 149.93 111 149.463 111 146.932V143.933H124.5H138V148.365C138 152.456 137.789 152.82 135.25 153.113C133.304 153.336 132.409 154.07 132.188 155.624C131.931 157.424 131.123 157.873 127.688 158.122C123.768 158.407 123.48 158.634 123.187 161.675L122.873 164.923H128.437C133.704 164.923 134 164.79 134 162.424C134 160.425 134.5 159.926 136.5 159.926C138.5 159.926 139 159.426 139 157.427C139 155.178 139.4 154.928 143 154.928C146.6 154.928 147 155.178 147 157.427V159.926H161.5H176V164.424V168.921H152H128V171.42V173.919H104H80V177.417V180.916H107H134V178.417V175.918H158H182V166.922C182 157.993 181.981 157.927 179.5 157.927C177.5 157.927 177 157.427 177 155.428V152.929H163.5H150V150.43C150 148.332 149.529 147.931 147.066 147.931C144.61 147.931 144.081 147.484 143.816 145.182C143.59 143.214 142.861 142.343 141.25 142.114C139.621 141.883 139 141.124 139 139.365C139 137.026 138.742 136.936 132.07 136.936C125.644 136.936 125.116 136.772 124.82 134.687C124.541 132.728 123.824 132.399 119.25 132.137C114.237 131.848 114 131.947 114 134.33ZM395.768 182.665C395.509 205.648 395.436 206.404 393.5 206.404C391.792 206.404 391.456 205.637 391.198 201.156C390.943 196.725 390.592 195.909 388.948 195.909C387.537 195.909 387 195.22 387 193.41C387 191.411 386.5 190.911 384.5 190.911C382.5 190.911 382 190.411 382 188.412C382 186.08 381.667 185.914 377 185.914C372.333 185.914 372 186.08 372 188.412C372 190.411 371.5 190.911 369.5 190.911C367.5 190.911 367 191.411 367 193.41C367 195.409 366.5 195.909 364.5 195.909C362.519 195.909 362 196.414 362 198.338C362 200.097 361.379 200.856 359.75 201.086C358.139 201.315 357.41 202.187 357.184 204.155C356.96 206.097 356.3 206.904 354.934 206.904C353.452 206.904 353 207.604 353 209.902V212.901H367H381V215.4C381 217.732 381.333 217.899 386 217.899C390.667 217.899 391 218.066 391 220.397C391 222.692 391.367 222.896 395.5 222.896C399.633 222.896 400 223.1 400 225.395V227.894H417H434V225.395C434 222.952 434.167 222.896 441.5 222.896H449V219.898C449 216.966 448.889 216.899 444 216.899C439.667 216.899 439 216.632 439 214.9C439 213.091 439.667 212.901 446 212.901H453V209.94V206.979L443.75 206.692L434.5 206.404L434.184 203.655C433.96 201.713 433.3 200.907 431.934 200.907C430.538 200.907 430 200.212 430 198.408C430 196.409 429.5 195.909 427.5 195.909C425.5 195.909 425 195.409 425 193.41C425 191.411 424.5 190.911 422.5 190.911C420.519 190.911 420 190.406 420 188.482C420 186.723 419.379 185.964 417.75 185.734C415.79 185.455 415.461 184.738 415.198 180.166C414.943 175.735 414.592 174.919 412.948 174.919C411.537 174.919 411 174.23 411 172.42C411 170.439 410.496 169.921 408.566 169.921C406.655 169.921 406.065 169.331 405.816 167.172C405.59 165.204 404.861 164.333 403.25 164.104C401.621 163.873 401 163.114 401 161.355C401 159.435 400.48 158.926 398.518 158.926H396.036L395.768 182.665ZM152 301.36V306.857H147.5H143V338.343V369.828H138H133V374.826V379.823H128.5H124V385.321V390.818H119H114V395.816V400.814H109.5H105V406.311V411.808H95.5H86V406.311V400.814H81.5H77V395.816V390.818H72H67V380.323V369.828H62H57V401.813V433.798H61.5H66V438.796V443.794H71H76V449.291V454.788H81H86V459.786V464.784H90.5H95V470.281V475.779H100H105V483.275V490.772H57.5H10V467.283V443.794H17C23.8 443.794 24 443.723 24 441.295C24 439.296 24.5 438.796 26.5 438.796C28.481 438.796 29 438.291 29 436.367C29 434.608 29.621 433.849 31.25 433.618L33.5 433.298L33.765 404.062L34.03 374.826H29.015C24.332 374.826 24 374.992 24 377.324C24 379.324 23.5 379.823 21.5 379.823H19V403.812V427.801H14.5H10V396.316V364.83H7.5C5.389 364.83 5 364.364 5 361.832C5 359.3 4.611 358.833 2.5 358.833H0V432.799V506.764H5H10V501.767V496.769H57.5H105V507.264V517.759H114.5H124V512.262V506.764H119.5H115V501.767V496.769H133.5H152V507.264V517.759H162H172V512.262V506.764H167.5H163V501.767V496.769H291H419V507.264V517.759H429H439V507.264V496.769H457.945H476.89L477.265 501.517C477.471 504.129 477.611 472.755 477.577 431.799L477.514 357.334L477.25 424.053L476.986 490.772H457.993H439V485.774V480.776H448.5C457.967 480.776 458 480.767 458 478.278C458 476.278 458.5 475.779 460.5 475.779H463V454.289V432.799H458C453.333 432.799 453 432.966 453 435.298C453 437.297 452.5 437.796 450.5 437.796H448V453.789V469.781H443.5H439V435.298V400.814H436.5C434.5 400.814 434 400.314 434 398.315C434 395.983 433.667 395.816 429 395.816C424.371 395.816 424 395.997 424 398.245C424 400.004 423.379 400.763 421.75 400.993L419.5 401.313L419.235 430.05L418.969 458.787H415.005H411.041L410.77 438.046L410.5 417.306H405.5C400.789 417.306 400.482 417.465 400.184 420.055C399.96 421.997 399.3 422.803 397.934 422.803C396.092 422.803 396 423.682 396 441.295C396 459.119 396.072 459.786 398 459.786C399.467 459.786 400 460.453 400 462.285C400 464.284 400.5 464.784 402.5 464.784C404.611 464.784 405 465.251 405 467.782V470.781H412H419V480.776V490.772H291H163V477.778V464.784H167.5H172V459.841V454.898L176.75 454.594L181.5 454.289L181.802 449.041L182.105 443.794H186.552H191V428.301V412.808H195.5H200V417.806V422.803H205H210V411.808V400.814H200.5H191V390.818V380.823H210H229V375.325V369.828H215H201V364.83V359.833H224.5H248V333.345V306.857H243.5H239V301.36V295.862H195.5H152V301.36ZM163 317.352V321.85H167H171V317.352V312.854H167H163V317.352ZM0.475 432.799C0.475 473.755 0.599 490.51 0.75 470.031C0.901 449.553 0.901 416.044 0.75 395.566C0.599 375.088 0.475 391.843 0.475 432.799ZM134 480.776V485.774H129C124.333 485.774 124 485.941 124 488.273V490.772H138H152V488.273C152 485.978 151.633 485.774 147.5 485.774H143V480.776V475.779H138.5H134V480.776ZM138 509.763C138 512.695 138.111 512.762 143 512.762C147.889 512.762 148 512.695 148 509.763C148 506.831 147.889 506.764 143 506.764C138.111 506.764 138 506.831 138 509.763ZM33 514.761C33 517.692 33.111 517.759 38 517.759C42.889 517.759 43 517.692 43 514.761C43 511.829 42.889 511.762 38 511.762C33.111 511.762 33 511.829 33 514.761ZM281 514.761C281 517.692 281.111 517.759 286 517.759C290.889 517.759 291 517.692 291 514.761C291 511.829 290.889 511.762 286 511.762C281.111 511.762 281 511.829 281 514.761ZM267 530.753C267 533.685 267.111 533.752 272 533.752C276.889 533.752 277 533.685 277 530.753C277 527.822 276.889 527.755 272 527.755C267.111 527.755 267 527.822 267 530.753ZM372 540.749C372 543.68 372.111 543.747 377 543.747C381.889 543.747 382 543.68 382 540.749C382 537.817 381.889 537.75 377 537.75C372.111 537.75 372 537.817 372 540.749ZM147.362 555.242C146.14 558.424 147.779 559.74 152.969 559.74C157.892 559.74 158 559.676 158 556.741C158 553.806 157.892 553.742 152.969 553.742C149.419 553.742 147.768 554.184 147.362 555.242ZM224 556.741C224 559.273 224.389 559.74 226.5 559.74C228.611 559.74 229 559.273 229 556.741C229 554.209 228.611 553.742 226.5 553.742C224.389 553.742 224 554.209 224 556.741ZM453 556.741C453 559.273 453.389 559.74 455.5 559.74C457.611 559.74 458 559.273 458 556.741C458 554.209 457.611 553.742 455.5 553.742C453.389 553.742 453 554.209 453 556.741ZM43 583.798C43 586.408 43.336 586.818 45.25 586.547C46.861 586.318 47.59 585.447 47.816 583.479C48.089 581.112 47.776 580.73 45.566 580.73C43.369 580.73 43 581.171 43 583.798ZM305.184 583.479C305.476 586.023 305.834 586.227 310 586.227C314.166 586.227 314.524 586.023 314.816 583.479C315.125 580.796 315.01 580.73 310 580.73C304.99 580.73 304.875 580.796 305.184 583.479Z" fill="#D30707"/>
</g>
<defs>
<clipPath id="clip0_52_21">
<rect width="477" height="666.69" fill="white"/>
</clipPath>
</defs>
</svg>
