<svg width="153" height="149" viewBox="0 0 153 149" fill="none" xmlns="http://www.w3.org/2000/svg">
<g clip-path="url(#clip0_46_65)">
<path d="M26.0222 56.5375L20.2171 46.4827L30.2719 40.6775L36.077 50.7324L26.0222 56.5375ZM70.3527 17.5369L80.269 11.8117L86.0741 21.8665L76.1578 27.5917L70.3527 17.5369ZM107.655 36.0351L96.1245 16.064L106.179 10.2588L129.32 50.3396L119.265 56.1448L124.99 66.0611L114.936 71.8662L120.741 81.9211L130.795 76.1159L136.601 86.1707L146.655 80.3656L152.381 90.2819L132.271 101.892L126.546 91.9759L116.63 97.7011L110.824 87.6462L70.7436 110.787L76.5487 120.842L66.4939 126.647L72.2191 136.563L52.2479 148.094L46.5228 138.177L56.5776 132.372L50.7724 122.317L60.6887 116.592L54.8836 106.537L44.9673 112.262L39.2421 102.346L29.1873 108.151L6.04662 68.0705L16.1014 62.2653L27.6318 82.2364L37.5481 76.5113L31.8229 66.595L41.8777 60.7898L36.077 50.7324L46.1274 44.9298L51.9326 54.9846L71.9037 43.4543L66.0985 33.3995L76.1578 27.5917L81.9585 37.6491L91.8748 31.924L97.6 41.8403L107.655 36.0351ZM63.4674 74.9532L57.6622 64.8983L47.6074 70.7035L53.4125 80.7583L63.4674 74.9532ZM93.4933 57.6177L87.6882 47.5629L77.6333 53.368L83.4385 63.4228L93.4933 57.6177Z" fill="#D30707"/>
</g>
<defs>
<clipPath id="clip0_46_65">
<rect width="116" height="104.235" fill="white" transform="translate(0 58) rotate(-30)"/>
</clipPath>
</defs>
</svg>
