<svg width="162" height="127" viewBox="0 0 162 127" fill="none" xmlns="http://www.w3.org/2000/svg">
<g clip-path="url(#clip0_59_90)">
<path d="M109.185 39.7354L62.1165 22.8677M64.3615 46.2456L72.3536 42.4704L68.5784 34.4783M76.1287 50.4625L85.5425 53.836M63.1285 20.0436L56.0441 39.8126C54.6271 43.7668 53.9186 45.7437 54.1469 47.5299C54.3477 49.101 55.0407 50.5681 56.1267 51.721C57.3612 53.0318 59.3382 53.7403 63.2924 55.1573L87.7682 63.9285C91.7225 65.3456 93.6994 66.054 95.4856 65.8257C97.0567 65.6249 98.5237 64.932 99.6767 63.846C100.988 62.6114 101.696 60.6345 103.113 56.6802L110.197 36.9113C111.614 32.9571 112.323 30.98 112.095 29.194C111.894 27.6229 111.201 26.1558 110.115 25.0028C108.88 23.692 106.903 22.9835 102.949 21.5665L78.4733 12.7953C74.5191 11.3783 72.542 10.6698 70.756 10.8981C69.1849 11.0989 67.7178 11.7919 66.5648 12.8779C65.254 14.1124 64.5455 16.0894 63.1285 20.0436Z" stroke="#D30707" stroke-width="5" stroke-linecap="round" stroke-linejoin="round"/>
</g>
<path d="M158.541 82.6367L141.593 69.156C141.066 68.7368 140.228 68.8322 139.809 69.3592L136.887 73.0336C136.45 73.5824 136.541 74.381 137.09 74.8175L149.371 84.5846L139.603 96.8661C139.167 97.4149 139.258 98.2135 139.806 98.65L143.481 101.573C143.744 101.782 144.081 101.879 144.415 101.841C144.749 101.803 145.055 101.633 145.265 101.369L158.744 84.4219C159.181 83.8725 159.09 83.0733 158.541 82.6367Z" fill="#D30707"/>
<path d="M121.319 98.9498L109.04 89.1818L118.809 76.9022C119.018 76.6387 119.115 76.3031 119.077 75.9681C119.038 75.6338 118.869 75.3278 118.605 75.1183L114.931 72.1956C114.667 71.986 114.331 71.8895 113.997 71.9276C113.662 71.9657 113.357 72.1354 113.147 72.3989L99.6655 89.3459C99.2289 89.8947 99.32 90.6933 99.8688 91.1305L116.817 104.611C117.08 104.82 117.417 104.917 117.751 104.879C118.085 104.841 118.391 104.671 118.601 104.407L121.523 100.733C121.96 100.185 121.869 99.3861 121.319 98.9498Z" fill="#D30707"/>
<path d="M135.438 64.6728C135.244 64.3971 134.949 64.2096 134.618 64.1515L131.854 63.6671C131.164 63.5451 130.505 64.008 130.385 64.6985L122.761 108.152C122.703 108.484 122.779 108.825 122.972 109.1C123.165 109.376 123.461 109.563 123.792 109.622L126.556 110.106C126.679 110.128 126.802 110.131 126.92 110.118C127.464 110.056 127.926 109.643 128.026 109.075L135.649 65.6207C135.707 65.2888 135.632 64.9479 135.438 64.6728Z" fill="#D30707"/>
<g clip-path="url(#clip1_59_90)">
<path d="M25.2709 91.1646L23.6237 91.5105L23.0979 89.0066L24.7451 88.6607C25.4354 88.5158 26.115 88.9595 26.2599 89.6498C26.4049 90.34 25.9614 91.0195 25.2709 91.1646ZM35.2532 89.0683L33.606 89.4143L33.0802 86.9104L34.7275 86.5645C35.4177 86.4196 36.0973 86.8633 36.2423 87.5535C36.3872 88.2438 35.9438 88.9233 35.2532 89.0683ZM53.5707 85.2218L53.0449 82.718L54.6921 82.3721C55.3824 82.2272 56.062 82.6709 56.2069 83.3611C56.3519 84.0514 55.9082 84.731 55.2179 84.8759L53.5707 85.2218ZM58.3398 73.8443L7.92737 84.4305C5.63334 84.9123 4.16444 87.1624 4.64611 89.4562L7.6843 103.924C8.16597 106.218 10.4159 107.687 12.7099 107.206L63.1226 96.6193C65.4164 96.1376 66.8856 93.8877 66.4039 91.5937L63.3657 77.1255C62.8837 74.8318 60.6336 73.3627 58.3398 73.8443ZM17.5288 92.7903C18.2565 92.6375 18.9706 93.1037 19.1234 93.8314C19.2762 94.5591 18.81 95.2731 18.0823 95.4259L14.5242 96.1731L15.05 98.6769L18.6081 97.9297C19.3358 97.7769 20.0498 98.2431 20.2026 98.9708C20.3554 99.6985 19.8892 100.413 19.1615 100.565L14.2857 101.589C13.558 101.742 12.844 101.276 12.6911 100.548L10.5327 90.2693C10.3799 89.5416 10.8461 88.8276 11.5737 88.6748L16.4496 87.6509C17.1773 87.4981 17.8913 87.9643 18.0441 88.692C18.1969 89.4197 17.7307 90.1337 17.0031 90.2865L13.445 91.0337L13.9708 93.5375L17.5288 92.7903ZM30.0671 96.2741C30.6592 96.7244 30.7741 97.569 30.3238 98.1611C30.1198 98.4293 29.835 98.5995 29.5292 98.6637C29.1603 98.7411 28.7607 98.6641 28.4369 98.4178L24.4351 95.3745L24.9797 97.9679C25.1325 98.6956 24.6663 99.4097 23.9386 99.5625C23.2109 99.7153 22.4969 99.2491 22.3441 98.5214L20.1856 88.2426C20.0328 87.5149 20.499 86.8008 21.2267 86.648L24.1917 86.0254C26.3353 85.5753 28.4455 86.953 28.8956 89.0966C29.2942 90.995 28.2594 92.867 26.5287 93.5832L30.0671 96.2741ZM40.0494 94.1779C40.6415 94.6282 40.7564 95.4728 40.3062 96.0649C40.1022 96.3331 39.8173 96.5033 39.5116 96.5675C39.1426 96.6449 38.7431 96.5679 38.4192 96.3216L34.4174 93.2783L34.962 95.8717C35.1148 96.5994 34.6486 97.3135 33.9209 97.4663C33.1933 97.6191 32.4792 97.1529 32.3264 96.4252L30.1679 86.1464C30.0151 85.4187 30.4813 84.7046 31.209 84.5518L34.1741 83.9292C36.3176 83.4791 38.4278 84.8568 38.8779 87.0004C39.2766 88.8988 38.2418 90.7707 36.511 91.487L40.0494 94.1779ZM49.9533 90.1092C50.4263 92.3618 48.9786 94.5792 46.7259 95.0522C44.4733 95.5253 42.2559 94.0775 41.7829 91.8249L40.7313 86.8173C40.2583 84.5646 41.706 82.3473 43.9587 81.8742C46.2113 81.4012 48.4287 82.8489 48.9017 85.1016L49.9533 90.1092ZM60.0141 89.9855C60.6062 90.4358 60.7211 91.2804 60.2708 91.8725C60.0668 92.1407 59.782 92.3108 59.4762 92.375C59.1073 92.4525 58.7077 92.3754 58.3839 92.1292L54.3821 89.0859L54.9267 91.6793C55.0795 92.407 54.6133 93.121 53.8856 93.2738C53.1579 93.4267 52.4439 92.9605 52.2911 92.2328L50.1326 81.9539C49.9798 81.2262 50.446 80.5122 51.1737 80.3594L54.1387 79.7368C56.2823 79.2866 58.3925 80.6644 58.8426 82.8079C59.2412 84.7064 58.2064 86.5783 56.4757 87.2946L60.0141 89.9855ZM47.3177 90.6626C47.4855 91.462 46.9719 92.2488 46.1725 92.4166C45.3731 92.5845 44.5864 92.0708 44.4185 91.2714L43.3669 86.2638C43.1991 85.4644 43.7127 84.6777 44.5121 84.5098C45.3115 84.342 46.0982 84.8556 46.2661 85.655L47.3177 90.6626Z" fill="#D30707"/>
</g>
<defs>
<clipPath id="clip0_59_90">
<rect width="60" height="60" fill="white" transform="translate(65) rotate(19.7157)"/>
</clipPath>
<clipPath id="clip1_59_90">
<rect width="60" height="60" fill="white" transform="translate(0 67.3306) rotate(-11.8593)"/>
</clipPath>
</defs>
</svg>
