<svg width="409" height="273" viewBox="0 0 409 273" fill="none" xmlns="http://www.w3.org/2000/svg">
<g clip-path="url(#clip0_183_92)">
<path d="M100.248 9.58917V19.2357L83.2248 18.6682L66.2016 18.1008V26.045V33.9892L58.2574 34.5566C50.124 35.1241 50.124 35.1241 49.5566 43.0682L48.9891 51.2016H40.4775H32.155V59.7132V68.2248H23.6434H15.1318V85.2481V102.271H7.56589H0V136.318V170.364H7.56589H15.1318V187.388V204.411H23.6434H32.155V212.923V221.434H40.4775H48.9891L49.5566 229.378C50.124 237.512 50.124 237.512 58.2574 238.079L66.2016 238.647V246.591V254.535L83.2248 253.967L100.248 253.4V263.047V272.504L134.862 272.126L169.287 271.558V262.479V253.4L185.932 253.967L202.388 254.535V246.402V238.457H210.899H219.411V220.488V202.519H211.088H202.577L202.009 194.575C201.442 186.442 201.442 186.442 193.498 185.874L185.364 185.307V177.363V169.419L177.42 169.986L169.287 170.743V161.474V152.395L160.397 151.828L151.318 151.26V136.318V121.375L160.397 120.808L169.287 120.24V111.161V101.893L177.42 102.65L185.364 103.217V95.2729V87.3287L193.498 86.7613C201.442 86.1938 201.442 86.1938 202.009 78.0605L202.577 70.1163H211.088H219.411V52.1473V34.1783H210.899H202.388V26.045V18.1008L185.932 18.6682L169.287 19.2357V10.1566V1.07754L134.862 0.510098L100.248 0.131804V9.58917Z" fill="#EC9615"/>
<path d="M221.87 118.727L204.279 119.484V136.318V153.152L222.248 153.719L240.217 154.287V135.75C240.217 125.726 240.028 117.592 239.839 117.781C239.461 117.971 231.327 118.538 221.87 118.727Z" fill="#D30707"/>
<path d="M289.396 136.318V154.287H307.365H325.333V136.318V118.349H307.365H289.396V136.318Z" fill="#D30707"/>
<path d="M391.157 118.727L374.512 119.484V136.318V153.152L391.535 153.719L408.558 154.287V135.75C408.558 125.726 408.369 117.592 408.18 117.781C407.802 117.971 400.236 118.538 391.157 118.727Z" fill="#D30707"/>
</g>
<defs>
<clipPath id="clip0_183_92">
<rect width="409" height="273" fill="white"/>
</clipPath>
</defs>
</svg>
