<svg width="406" height="457" viewBox="0 0 406 457" fill="none" xmlns="http://www.w3.org/2000/svg">
<g filter="url(#filter0_dd_167_99)">
<path d="M293.629 285.377L304.913 243.262L284.305 237.74L272.979 280.011L251.471 274.248L245.868 295.161L195.956 281.787L201.601 260.718L251.513 274.092L257.153 253.045L150.99 224.599L145.348 245.653L188.012 257.244L182.37 278.298L139.518 266.816L145.118 245.918L123.618 240.157L135.022 197.595L114.407 192.071L103.122 234.187L81.473 228.386L98.5586 164.622L119.769 170.305L125.254 149.831L146.309 155.473L152.109 133.824L173.758 139.624L179.44 118.422L200.643 124.103L194.944 145.37L258.514 162.585L264.258 141.149L285.461 146.83L279.7 168.33L301.349 174.131L295.706 195.192L316.618 200.796L310.977 221.85L332.322 227.569L315.278 291.178L293.629 285.377ZM189.28 166.509L168.077 160.827L162.394 182.037L183.597 187.719L189.28 166.509ZM274.099 189.236L252.896 183.554L247.213 204.764L268.415 210.446L274.099 189.236ZM163.472 91.4179L185.121 97.2187L179.44 118.422L157.791 112.621L163.472 91.4179ZM312.792 131.428L307.11 152.631L285.461 146.83L291.143 125.627L312.792 131.428Z" fill="#CF1421"/>
</g>
<g filter="url(#filter1_dd_167_99)">
<path d="M185.331 383.151L192.415 356.712L179.478 353.245L172.367 379.782L158.866 376.164L155.348 389.292L124.015 380.897L127.559 367.671L158.892 376.066L162.432 362.854L95.7865 344.996L92.245 358.213L119.028 365.49L115.486 378.707L88.5851 371.499L92.1004 358.379L78.6032 354.763L85.7624 328.044L72.821 324.576L65.7367 351.015L52.1462 347.373L62.872 307.344L76.1869 310.912L79.6307 298.059L92.8479 301.601L96.4895 288.01L110.08 291.652L113.647 278.341L126.957 281.908L123.38 295.258L163.287 306.066L166.893 292.609L180.203 296.175L176.587 309.672L190.177 313.314L186.635 326.536L199.763 330.053L196.221 343.27L209.621 346.861L198.921 386.792L185.331 383.151ZM119.824 308.529L106.513 304.962L102.946 318.277L116.256 321.844L119.824 308.529ZM173.07 322.796L159.76 319.23L156.192 332.545L169.503 336.111L173.07 322.796ZM103.623 261.389L117.213 265.031L113.647 278.341L100.056 274.7L103.623 261.389ZM197.361 286.506L193.794 299.817L180.203 296.175L183.77 282.865L197.361 286.506Z" fill="#CF1421"/>
</g>
<g filter="url(#filter2_dd_167_99)">
<path d="M132.642 128.247L137.164 111.373L128.907 109.161L124.369 126.097L115.752 123.788L113.507 132.167L93.5097 126.808L95.7714 118.367L115.769 123.726L118.028 115.293L75.4941 103.896L73.2338 112.332L90.3269 116.976L88.0667 125.411L70.898 120.811L73.1416 112.438L64.5274 110.129L69.0966 93.0772L60.8372 90.8641L56.3159 107.738L47.6422 105.413L54.4876 79.8663L62.9854 82.1432L65.1833 73.9405L73.6186 76.2008L75.9427 67.5271L84.6164 69.8512L86.8926 61.3563L95.3876 63.6325L93.1045 72.153L118.574 79.0504L120.875 70.4619L129.37 72.7381L127.062 81.3522L135.736 83.6763L133.475 92.1145L141.853 94.3595L139.593 102.795L148.145 105.086L141.316 130.571L132.642 128.247ZM90.8351 80.6224L82.3402 78.3461L80.0632 86.8439L88.5582 89.1201L90.8351 80.6224ZM124.818 89.728L116.323 87.4518L114.046 95.9495L122.541 98.2257L124.818 89.728ZM80.4951 50.5372L89.1688 52.8613L86.8926 61.3563L78.2189 59.0322L80.4951 50.5372ZM140.32 66.5673L138.044 75.0622L129.37 72.7381L131.646 64.2431L140.32 66.5673Z" fill="#CF1421"/>
</g>
<defs>
<filter id="filter0_dd_167_99" x="-8" y="0" width="421.979" height="426.096" filterUnits="userSpaceOnUse" color-interpolation-filters="sRGB">
<feFlood flood-opacity="0" result="BackgroundImageFix"/>
<feColorMatrix in="SourceAlpha" type="matrix" values="0 0 0 0 0 0 0 0 0 0 0 0 0 0 0 0 0 0 127 0" result="hardAlpha"/>
<feMorphology radius="4" operator="erode" in="SourceAlpha" result="effect1_dropShadow_167_99"/>
<feOffset dy="4"/>
<feGaussianBlur stdDeviation="2"/>
<feComposite in2="hardAlpha" operator="out"/>
<feColorMatrix type="matrix" values="0 0 0 0 0.0470588 0 0 0 0 0.0470588 0 0 0 0 0.0509804 0 0 0 0.05 0"/>
<feBlend mode="normal" in2="BackgroundImageFix" result="effect1_dropShadow_167_99"/>
<feColorMatrix in="SourceAlpha" type="matrix" values="0 0 0 0 0 0 0 0 0 0 0 0 0 0 0 0 0 0 127 0" result="hardAlpha"/>
<feMorphology radius="8" operator="erode" in="SourceAlpha" result="effect2_dropShadow_167_99"/>
<feOffset dy="16"/>
<feGaussianBlur stdDeviation="8"/>
<feComposite in2="hardAlpha" operator="out"/>
<feColorMatrix type="matrix" values="0 0 0 0 0.0470588 0 0 0 0 0.0470588 0 0 0 0 0.0509804 0 0 0 0.1 0"/>
<feBlend mode="normal" in2="effect1_dropShadow_167_99" result="effect2_dropShadow_167_99"/>
<feBlend mode="normal" in="SourceGraphic" in2="effect2_dropShadow_167_99" result="shape"/>
</filter>
<filter id="filter1_dd_167_99" x="-7" y="204" width="270.86" height="276.423" filterUnits="userSpaceOnUse" color-interpolation-filters="sRGB">
<feFlood flood-opacity="0" result="BackgroundImageFix"/>
<feColorMatrix in="SourceAlpha" type="matrix" values="0 0 0 0 0 0 0 0 0 0 0 0 0 0 0 0 0 0 127 0" result="hardAlpha"/>
<feMorphology radius="4" operator="erode" in="SourceAlpha" result="effect1_dropShadow_167_99"/>
<feOffset dy="4"/>
<feGaussianBlur stdDeviation="2"/>
<feComposite in2="hardAlpha" operator="out"/>
<feColorMatrix type="matrix" values="0 0 0 0 0.0470588 0 0 0 0 0.0470588 0 0 0 0 0.0509804 0 0 0 0.05 0"/>
<feBlend mode="normal" in2="BackgroundImageFix" result="effect1_dropShadow_167_99"/>
<feColorMatrix in="SourceAlpha" type="matrix" values="0 0 0 0 0 0 0 0 0 0 0 0 0 0 0 0 0 0 127 0" result="hardAlpha"/>
<feMorphology radius="8" operator="erode" in="SourceAlpha" result="effect2_dropShadow_167_99"/>
<feOffset dy="16"/>
<feGaussianBlur stdDeviation="8"/>
<feComposite in2="hardAlpha" operator="out"/>
<feColorMatrix type="matrix" values="0 0 0 0 0.0470588 0 0 0 0 0.0470588 0 0 0 0 0.0509804 0 0 0 0.1 0"/>
<feBlend mode="normal" in2="effect1_dropShadow_167_99" result="effect2_dropShadow_167_99"/>
<feBlend mode="normal" in="SourceGraphic" in2="effect2_dropShadow_167_99" result="shape"/>
</filter>
<filter id="filter2_dd_167_99" x="7" y="20" width="178.655" height="185.1" filterUnits="userSpaceOnUse" color-interpolation-filters="sRGB">
<feFlood flood-opacity="0" result="BackgroundImageFix"/>
<feColorMatrix in="SourceAlpha" type="matrix" values="0 0 0 0 0 0 0 0 0 0 0 0 0 0 0 0 0 0 127 0" result="hardAlpha"/>
<feMorphology radius="4" operator="erode" in="SourceAlpha" result="effect1_dropShadow_167_99"/>
<feOffset dy="4"/>
<feGaussianBlur stdDeviation="2"/>
<feComposite in2="hardAlpha" operator="out"/>
<feColorMatrix type="matrix" values="0 0 0 0 0.0470588 0 0 0 0 0.0470588 0 0 0 0 0.0509804 0 0 0 0.05 0"/>
<feBlend mode="normal" in2="BackgroundImageFix" result="effect1_dropShadow_167_99"/>
<feColorMatrix in="SourceAlpha" type="matrix" values="0 0 0 0 0 0 0 0 0 0 0 0 0 0 0 0 0 0 127 0" result="hardAlpha"/>
<feMorphology radius="8" operator="erode" in="SourceAlpha" result="effect2_dropShadow_167_99"/>
<feOffset dy="16"/>
<feGaussianBlur stdDeviation="8"/>
<feComposite in2="hardAlpha" operator="out"/>
<feColorMatrix type="matrix" values="0 0 0 0 0.0470588 0 0 0 0 0.0470588 0 0 0 0 0.0509804 0 0 0 0.1 0"/>
<feBlend mode="normal" in2="effect1_dropShadow_167_99" result="effect2_dropShadow_167_99"/>
<feBlend mode="normal" in="SourceGraphic" in2="effect2_dropShadow_167_99" result="shape"/>
</filter>
</defs>
</svg>
