<svg width="50" height="51" viewBox="0 0 50 51" fill="none" xmlns="http://www.w3.org/2000/svg">
<path d="M31.25 25.6899C31.25 29.1418 28.4519 31.9399 25 31.9399C21.5481 31.9399 18.75 29.1418 18.75 25.6899C18.75 22.2381 21.5481 19.4399 25 19.4399C28.4519 19.4399 31.25 22.2381 31.25 25.6899Z" stroke="#CF1421" stroke-width="4.16667" stroke-linecap="round" stroke-linejoin="round"/>
<path d="M26.8846 7.06505C26.4558 6.93994 25.9706 6.93994 25 6.93994C24.0294 6.93994 23.5442 6.93994 23.1154 7.06505C22.4879 7.24815 21.9335 7.62344 21.5304 8.13809C21.255 8.48969 21.0748 8.94028 20.7144 9.84144C20.1962 11.1369 18.7582 11.8039 17.4345 11.3629L16.2454 10.9666C15.4019 10.6855 14.9801 10.5449 14.5666 10.5208C13.9591 10.4854 13.3546 10.6281 12.8271 10.9314C12.468 11.1379 12.1537 11.4523 11.5249 12.081C10.8567 12.7492 10.5226 13.0833 10.3103 13.4647C9.99848 14.025 9.86656 14.6677 9.93248 15.3056C9.97733 15.7397 10.1528 16.1785 10.5038 17.0559C11.0534 18.43 10.5247 19.9999 9.25567 20.7615L8.67752 21.1084C7.79231 21.6395 7.34971 21.9051 7.02821 22.2708C6.74371 22.5943 6.52919 22.9733 6.3981 23.3837C6.25 23.8474 6.25 24.3687 6.25 25.4114C6.25 26.646 6.25 27.2631 6.44712 27.7916C6.62131 28.2585 6.90463 28.6768 7.27342 29.012C7.69079 29.3912 8.25823 29.6183 9.39304 30.0722C10.5528 30.536 11.1499 31.8235 10.7549 33.0085L10.3067 34.3533C9.99623 35.2845 9.84098 35.7504 9.82687 36.2079C9.8099 36.7581 9.93852 37.3029 10.1997 37.7872C10.417 38.1904 10.7641 38.5374 11.4583 39.2316C12.1526 39.9258 12.4997 40.2729 12.9026 40.4901C13.3871 40.7514 13.9319 40.8801 14.4821 40.8631C14.9396 40.8489 15.4053 40.6937 16.3367 40.3833L17.4346 40.0172C18.7582 39.5762 20.1962 40.2431 20.7144 41.5385C21.0748 42.4395 21.255 42.8901 21.5304 43.2418C21.9335 43.7564 22.4879 44.1318 23.1154 44.3149C23.5442 44.4399 24.0294 44.4399 25 44.4399C25.9706 44.4399 26.4558 44.4399 26.8846 44.3149C27.5121 44.1318 28.0665 43.7564 28.4696 43.2418C28.745 42.8901 28.9252 42.4395 29.2856 41.5385C29.8037 40.2431 31.2419 39.5762 32.5652 40.0176L33.6623 40.3835C34.5937 40.6939 35.0596 40.8491 35.5171 40.8633C36.0673 40.8801 36.6121 40.7516 37.0965 40.4904C37.4994 40.2731 37.8467 39.926 38.5408 39.2318C39.235 38.5376 39.5821 38.1904 39.7994 37.7874C40.0606 37.3031 40.1892 36.7581 40.1723 36.2081C40.1581 35.7506 40.0029 35.2847 39.6925 34.3533L39.2446 33.0095C38.8494 31.8241 39.4467 30.5362 40.6069 30.0722C41.7417 29.6183 42.3092 29.3912 42.7267 29.012C43.0954 28.6768 43.3787 28.2585 43.5529 27.7916C43.75 27.2631 43.75 26.646 43.75 25.4114C43.75 24.3687 43.75 23.8474 43.6019 23.3837C43.4708 22.9733 43.2562 22.5943 42.9719 22.2708C42.6502 21.9051 42.2077 21.6395 41.3225 21.1084L40.7435 20.7611C39.4746 19.9997 38.9456 18.4298 39.4954 17.0557C39.8462 16.1783 40.0219 15.7396 40.0667 15.3054C40.1325 14.6676 40.0006 14.0249 39.6887 13.4645C39.4765 13.0832 39.1425 12.749 38.4742 12.0808C37.8454 11.4521 37.531 11.1377 37.1721 10.9313C36.6446 10.6279 36.04 10.4852 35.4325 10.5206C35.019 10.5447 34.5973 10.6853 33.7537 10.9665L32.5654 11.3626C31.2419 11.8038 29.8037 11.1368 29.2856 9.84144C28.9252 8.94028 28.745 8.48969 28.4696 8.13809C28.0665 7.62344 27.5121 7.24815 26.8846 7.06505Z" stroke="#CF1421" stroke-width="4.16667" stroke-linecap="round" stroke-linejoin="round"/>
</svg>
